<svg width="735" height="352" viewBox="0 0 735 352" fill="none" xmlns="http://www.w3.org/2000/svg">
<g filter="url(#filter0_f_15_109)">
<path fill-rule="evenodd" clip-rule="evenodd" d="M425.144 326.511C396.422 350.369 361.488 363.58 325.463 373.906C270.263 389.729 208.707 427.034 159.779 402.576C112.661 379.021 91.5313 314.294 103.776 263.086C116.123 211.453 192.626 196.38 220.277 149.576C239.038 117.817 211.612 75.9841 232.425 45.3178C254.753 12.4178 295.18 -5.1676 333.814 -17.7202C377.215 -31.8214 421.693 -34.7554 466.223 -30.6452C525.14 -25.2072 621.003 -44.6588 633.337 9.9258C647.999 74.8114 552.254 119.951 513.474 178.458C497.862 202.012 488.123 226.593 473.697 250.774C458.053 276.995 449.137 306.581 425.144 326.511Z" fill="url(#paint0_linear_15_109)"/>
</g>
<defs>
<filter id="filter0_f_15_109" x="0.359741" y="-132.353" width="734.491" height="643.019" filterUnits="userSpaceOnUse" color-interpolation-filters="sRGB">
<feFlood flood-opacity="0" result="BackgroundImageFix"/>
<feBlend mode="normal" in="SourceGraphic" in2="BackgroundImageFix" result="shape"/>
<feGaussianBlur stdDeviation="50" result="effect1_foregroundBlur_15_109"/>
</filter>
<linearGradient id="paint0_linear_15_109" x1="365.122" y1="345.419" x2="304.284" y2="-3.11194" gradientUnits="userSpaceOnUse">
<stop stop-color="#6823FF"/>
<stop offset="1" stop-color="white" stop-opacity="0"/>
</linearGradient>
</defs>
</svg>
